<svg width="73" height="15" viewBox="0 0 73 15" fill="none" xmlns="http://www.w3.org/2000/svg">
<path d="M31.4704 10.4322C31.3287 10.2816 31.1436 10.207 30.9177 10.207C30.673 10.207 30.4638 10.2936 30.2874 10.4691C30.1169 10.6382 30.0307 10.8648 30.0307 11.1482C30.0307 11.3841 30.1049 11.5809 30.2526 11.7372C30.4003 11.8878 30.5875 11.9623 30.8154 11.9623C30.9745 11.9623 31.1188 11.924 31.2492 11.8451C31.3795 11.7677 31.4838 11.6576 31.564 11.5191C31.6482 11.3741 31.6917 11.2086 31.6917 11.0211C31.6917 10.7788 31.6188 10.5842 31.4698 10.4322H31.4704ZM25.8338 5.55316L25.6032 6.74805H27.5108L26.5483 11.8899H27.9286L28.8998 6.74805H30.7987L31.0279 5.55316H25.8338ZM23.7116 5.55316L22.5199 11.8899H23.9075L25.1006 5.55316H23.7116Z" fill="#5582FF"/>
<path d="M46.3891 6.37722C46.0997 6.0817 45.7561 5.85224 45.3591 5.68956C44.9667 5.52688 44.5356 5.44589 44.0644 5.44589C43.5932 5.44589 43.1667 5.52688 42.7697 5.68956C42.3713 5.85224 42.0251 6.08241 41.7297 6.37722C41.4349 6.67274 41.2057 7.01942 41.0406 7.41866C40.8815 7.81719 40.8013 8.25124 40.8013 8.72152C40.8013 9.19181 40.8815 9.62728 41.0406 10.0258C41.205 10.4229 41.4316 10.7703 41.721 11.0673C42.0158 11.3628 42.3627 11.5922 42.761 11.7549C43.1634 11.9176 43.6019 11.9986 44.0731 11.9986C44.5443 11.9986 44.9667 11.9176 45.3591 11.7549C45.7561 11.5922 46.0997 11.3649 46.3891 11.0758C46.6838 10.7788 46.9144 10.4322 47.0795 10.0343C47.244 9.62941 47.3262 9.19252 47.3262 8.72081C47.3262 8.24911 47.2446 7.8108 47.0795 7.41795C46.9151 7.01942 46.6845 6.67203 46.3891 6.37651V6.37722ZM45.7849 9.54629C45.6946 9.7928 45.5629 10.0073 45.3925 10.1885C45.2234 10.3696 45.0242 10.5082 44.797 10.6041C44.5764 10.7014 44.3318 10.7504 44.0651 10.7504C43.7984 10.7504 43.5511 10.7014 43.3231 10.6041C43.0965 10.5082 42.898 10.3696 42.7276 10.1885C42.5632 10.0073 42.4328 9.7928 42.3366 9.54629C42.245 9.29197 42.1989 9.01776 42.1989 8.72152C42.1989 8.42529 42.245 8.14611 42.3366 7.89818C42.4328 7.65167 42.5658 7.43713 42.7363 7.25598C42.9067 7.07483 43.1026 6.9363 43.3231 6.83898C43.5511 6.74307 43.797 6.69406 44.0651 6.69406C44.3331 6.69406 44.5791 6.74307 44.8056 6.83898C45.0336 6.9363 45.2281 7.07483 45.3932 7.25598C45.5636 7.43713 45.6953 7.65167 45.7855 7.89818C45.8818 8.14611 45.9299 8.42032 45.9299 8.72152C45.9299 9.02273 45.8811 9.29837 45.7855 9.54629H45.7849Z" fill="#191919"/>
<path d="M65.3422 8.87639C65.1831 8.75278 64.9973 8.65688 64.7821 8.58868C64.885 8.5354 64.9813 8.47431 65.0702 8.40469C65.4324 8.11556 65.6142 7.71063 65.6142 7.19133C65.6142 6.67203 65.4211 6.26285 65.0354 5.9794C64.6484 5.69453 64.1103 5.55316 63.4172 5.55316H60.64V11.8899H63.579C64.3336 11.8899 64.9077 11.7329 65.2987 11.4196C65.6971 11.0999 65.8943 10.6616 65.8943 10.1061C65.8943 9.55055 65.7112 9.15913 65.3415 8.87639H65.3422ZM62.0129 6.64007H63.2989C63.5997 6.64007 63.8263 6.70542 63.9793 6.83826C64.1324 6.96614 64.2099 7.15652 64.2099 7.40871C64.2099 7.6609 64.1324 7.85626 63.9793 7.9884C63.8263 8.11485 63.5997 8.17878 63.2989 8.17878H62.0129V6.64007ZM64.2527 10.6041C64.0883 10.7383 63.8463 10.8037 63.5282 10.8037H62.0129V9.20246H63.5282C63.8463 9.20246 64.0883 9.26782 64.2527 9.40066C64.4171 9.52853 64.4993 9.7246 64.4993 9.98958C64.4993 10.2546 64.4178 10.4719 64.2527 10.6048V10.6041Z" fill="#191919"/>
<path d="M38.5882 5.55316L36.3932 9.48804L34.1601 5.55316H33.0191V11.8899H34.3138V8.16671L36.0677 11.22H36.6806L38.4365 8.10135L38.4438 11.8899H39.7385L39.7298 5.55316H38.5882Z" fill="#191919"/>
<path d="M70.3351 5.55316H68.9716L66.3147 11.8899H67.7284L68.2597 10.5323H71.0236L71.5523 11.8899H73L70.3351 5.55316ZM68.6949 9.41842L69.6447 6.99384L70.5884 9.41842H68.6949Z" fill="#191919"/>
<path d="M59.9349 5.55316H58.4784L56.9144 8.11485H55.9231V5.55316H54.5529V11.8899H55.9231V9.33744H56.8743L58.4283 11.8899H59.995L57.9858 8.61284L59.9349 5.55316Z" fill="#191919"/>
<path d="M49.9142 7.25527C50.0846 7.07412 50.2865 6.93559 50.5184 6.83827C50.7517 6.74236 51.007 6.69335 51.2858 6.69335C51.5805 6.69335 51.8526 6.75728 52.1019 6.88373C52.3525 7.00521 52.5791 7.18849 52.7836 7.43642L53.6699 6.56761C53.3852 6.19891 53.0343 5.92257 52.6132 5.73502C52.1995 5.5418 51.7336 5.44589 51.2169 5.44589C50.7517 5.44589 50.3233 5.52688 49.9309 5.68956C49.5386 5.84655 49.1963 6.07317 48.8996 6.3687C48.6102 6.66422 48.3842 7.0109 48.2191 7.41014C48.0601 7.80867 47.9799 8.24556 47.9799 8.72224C47.9799 9.19891 48.0601 9.63722 48.2191 10.0358C48.3836 10.4329 48.6102 10.7803 48.8996 11.0772C49.1903 11.3727 49.5299 11.6022 49.9222 11.7649C50.3206 11.9219 50.7484 11.9993 51.2082 11.9993C51.7309 11.9993 52.1995 11.9034 52.6132 11.7102C53.0343 11.5169 53.3852 11.237 53.6699 10.8683L52.7836 9.99953C52.5791 10.2524 52.3525 10.4428 52.1019 10.57C51.8526 10.69 51.5805 10.7511 51.2858 10.7511C51.0064 10.7511 50.7517 10.7021 50.5184 10.6048C50.2865 10.5089 50.0846 10.3704 49.9142 10.1892C49.7438 10.0081 49.6107 9.79351 49.5145 9.547C49.4229 9.29908 49.3768 9.02486 49.3768 8.72224C49.3768 8.41961 49.4229 8.14681 49.5145 7.89889C49.6107 7.65238 49.7438 7.43784 49.9142 7.25669V7.25527Z" fill="#191919"/>
<path d="M19.0963 14.058L17.2228 10.6098V3.11936C17.2228 2.71728 16.9167 2.3912 16.5377 2.3912H15.4369V3.55981H15.9709C16.0551 3.55981 16.1226 3.63227 16.1226 3.72249V10.3022H3.00464V3.72249C3.00464 3.63155 3.07282 3.55981 3.1577 3.55981H3.72651V2.3912H2.59023C2.21326 2.3912 1.90512 2.71728 1.90512 3.11936V10.6098L0.0316039 14.058C-0.0178576 14.149 -0.0085003 14.2619 0.0543292 14.3415L0.369813 14.7421C0.497477 14.9048 0.686634 15 0.885148 15H18.2408C18.4406 15 18.6298 14.9048 18.7575 14.7421L19.0716 14.3429C19.1344 14.2619 19.1438 14.149 19.0943 14.058H19.0963ZM12.282 13.8328L11.9398 13.1999C11.8228 12.9804 11.6029 12.8447 11.3643 12.8447H7.75896C7.52168 12.8447 7.30177 12.9804 7.18347 13.1999L6.84259 13.8328H1.42588L2.70921 11.4693H16.4214L17.7047 13.8328H12.2827H12.282Z" fill="#191919"/>
<path d="M13.8781 0.0475974C13.3915 0.101587 12.9878 0.189676 12.6443 0.316127C11.9251 0.580394 11.2052 1.10964 10.728 1.50817C10.3055 1.86124 9.90651 2.2484 9.58434 2.61781C9.26217 2.24769 8.86247 1.85981 8.43871 1.50675C7.96147 1.10893 7.24161 0.579682 6.52107 0.316836C6.17752 0.191096 5.7738 0.103008 5.28721 0.0490175L4.8454 0L4.85141 9.11082H7.03641V3.10372C7.86455 3.74449 8.59311 4.66659 9.2722 5.56453L9.58367 5.97655L9.89582 5.56453C10.5756 4.66517 11.3041 3.74307 12.1289 3.10372V9.11082H14.3139L14.3199 0L13.8781 0.0490175V0.0475974Z" fill="#5582FF"/>
</svg>
